<svg width="33" height="38" fill="none" xmlns="http://www.w3.org/2000/svg"><g filter="url(#a)" fill-rule="evenodd" clip-rule="evenodd" fill="#fff"><path d="M22.617.076a1 1 0 0 1 1.09.217c.909.908 2.097 2.878 3.059 5.918C27.737 9.28 28.5 13.508 28.5 19a1 1 0 0 1-1 1H24v9a1 1 0 1 1-2 0V1a1 1 0 0 1 .617-.924ZM24 18h2.491c-.086-4.816-.786-8.512-1.632-11.186-.278-.88-.57-1.643-.859-2.295V18ZM10 0a1 1 0 0 1 1 1v28a1 1 0 1 1-2 0V1a1 1 0 0 1 1-1Z"/><path d="M5.5 0a1 1 0 0 1 1 1v5.5c0 .557.192 1.315.7 1.917C7.68 8.983 8.515 9.5 10 9.5a1 1 0 0 1 0 2c-2.015 0-3.43-.733-4.326-1.792A5.068 5.068 0 0 1 4.5 6.5V1a1 1 0 0 1 1-1Z"/><path d="M14.5 0a1 1 0 0 0-1 1v5.5a3.07 3.07 0 0 1-.7 1.917C12.32 8.983 11.484 9.5 10 9.5a1 1 0 0 0 0 2c2.014 0 3.43-.733 4.326-1.792A5.068 5.068 0 0 0 15.5 6.5V1a1 1 0 0 0-1-1Z"/></g><defs><filter id="a" x="0" y="0" width="33" height="38" filterUnits="userSpaceOnUse" color-interpolation-filters="sRGB"><feFlood flood-opacity="0" result="BackgroundImageFix"/><feColorMatrix in="SourceAlpha" values="0 0 0 0 0 0 0 0 0 0 0 0 0 0 0 0 0 0 127 0" result="hardAlpha"/><feOffset dy="4"/><feGaussianBlur stdDeviation="2"/><feComposite in2="hardAlpha" operator="out"/><feColorMatrix values="0 0 0 0 0 0 0 0 0 0 0 0 0 0 0 0 0 0 0.25 0"/><feBlend in2="BackgroundImageFix" result="effect1_dropShadow_2403_808"/><feBlend in="SourceGraphic" in2="effect1_dropShadow_2403_808" result="shape"/></filter></defs></svg>