<svg width="33" height="38" viewBox="0 0 33 38" fill="none" xmlns="http://www.w3.org/2000/svg">
<g filter="url(#filter0_d_2403_808)">
<path fill-rule="evenodd" clip-rule="evenodd" d="M22.6173 0.0761497C22.991 -0.0786313 23.4211 0.00692445 23.7071 0.292922C24.6156 1.20142 25.8038 3.17065 26.7659 6.21082C27.7373 9.28039 28.5 13.5081 28.5 19C28.5 19.5523 28.0523 20 27.5 20H24V29C24 29.5523 23.5523 30 23 30C22.4477 30 22 29.5523 22 29V1.00003C22 0.595567 22.2436 0.230931 22.6173 0.0761497ZM24 18H26.4912C26.4053 13.1836 25.7051 9.48755 24.8591 6.81424C24.5807 5.93457 24.2885 5.1715 24 4.51895V18Z" fill="white"/>
<path fill-rule="evenodd" clip-rule="evenodd" d="M10 0C10.5523 0 11 0.447715 11 1V29C11 29.5523 10.5523 30 10 30C9.44772 30 9 29.5523 9 29V1C9 0.447715 9.44772 0 10 0Z" fill="white"/>
<path fill-rule="evenodd" clip-rule="evenodd" d="M5.5 0C6.05228 0 6.5 0.447715 6.5 1V6.5C6.5 7.05686 6.69203 7.81518 7.20088 8.41656C7.68001 8.98281 8.51446 9.5 9.99993 9.5C10.5522 9.5 10.9999 9.94771 10.9999 10.5C10.9999 11.0523 10.5522 11.5 9.99993 11.5C7.98547 11.5 6.56995 10.7672 5.6741 9.70844C4.80797 8.68482 4.5 7.44314 4.5 6.5V1C4.5 0.447715 4.94772 0 5.5 0Z" fill="white"/>
<path fill-rule="evenodd" clip-rule="evenodd" d="M14.5 0C13.9477 0 13.5 0.447715 13.5 1V6.5C13.5 7.05686 13.308 7.81518 12.7991 8.41656C12.32 8.98281 11.4854 9.5 9.99993 9.5C9.44765 9.5 9.00007 9.94771 9.00007 10.5C9.00007 11.0523 9.44765 11.5 9.99993 11.5C12.0144 11.5 13.43 10.7672 14.3259 9.70844C15.192 8.68482 15.5 7.44314 15.5 6.5V1C15.5 0.447715 15.0523 0 14.5 0Z" fill="white"/>
</g>
<defs>
<filter id="filter0_d_2403_808" x="0" y="0" width="33" height="38" filterUnits="userSpaceOnUse" color-interpolation-filters="sRGB">
<feFlood flood-opacity="0" result="BackgroundImageFix"/>
<feColorMatrix in="SourceAlpha" type="matrix" values="0 0 0 0 0 0 0 0 0 0 0 0 0 0 0 0 0 0 127 0" result="hardAlpha"/>
<feOffset dy="4"/>
<feGaussianBlur stdDeviation="2"/>
<feComposite in2="hardAlpha" operator="out"/>
<feColorMatrix type="matrix" values="0 0 0 0 0 0 0 0 0 0 0 0 0 0 0 0 0 0 0.25 0"/>
<feBlend mode="normal" in2="BackgroundImageFix" result="effect1_dropShadow_2403_808"/>
<feBlend mode="normal" in="SourceGraphic" in2="effect1_dropShadow_2403_808" result="shape"/>
</filter>
</defs>
</svg>
